HIERARCHY
ROOT Hips
{
	OFFSET 0.0000 0.0000 0.0000
	CHANNELS 6 Xposition Yposition Zposition Zrotation Xrotation Yrotation
	JOINT Ab
	{
		OFFSET -0.0000 8.0846 -0.0000
		CHANNELS 3 Zrotation Xrotation Yrotation
		JOINT Chest
		{
			OFFSET -0.0000 25.0068 -0.0000
			CHANNELS 3 Zrotation Xrotation Yrotation
			JOINT Neck
			{
				OFFSET -0.0000 25.0068 0.0000
				CHANNELS 3 Zrotation Xrotation Yrotation
				JOINT Head
				{
					OFFSET -0.0000 10.7556 0.0000
					CHANNELS 3 Zrotation Xrotation Yrotation
					End Site
					{
						OFFSET -0.0000 16.6222 0.0000
					}
				}
			}
			JOINT LeftCollar
			{
				OFFSET -0.0000 25.0068 0.0000
				CHANNELS 3 Zrotation Xrotation Yrotation
				JOINT LeftShoulder
				{
					OFFSET 19.5556 -0.0000 0.0000
					CHANNELS 3 Zrotation Xrotation Yrotation
					JOINT LeftElbow
					{
						OFFSET 27.1828 0.0000 0.0000
						CHANNELS 3 Zrotation Xrotation Yrotation
						JOINT LeftWrist
						{
							OFFSET 23.3157 0.0000 0.0000
							CHANNELS 3 Zrotation Xrotation Yrotation
							End Site
							{
								OFFSET 0.0000 -14.6667 0.0000
							}
						}
					}
				}
			}
			JOINT RightCollar
			{
				OFFSET -0.0000 25.0068 0.0000
				CHANNELS 3 Zrotation Xrotation Yrotation
				JOINT RightShoulder
				{
					OFFSET -19.5556 0.0000 0.0000
					CHANNELS 3 Zrotation Xrotation Yrotation
					JOINT RightElbow
					{
						OFFSET -27.1828 0.0000 0.0000
						CHANNELS 3 Zrotation Xrotation Yrotation
						JOINT RightWrist
						{
							OFFSET -23.3157 0.0000 0.0000
							CHANNELS 3 Zrotation Xrotation Yrotation
							End Site
							{
								OFFSET -0.0000 -14.6667 0.0000
							}
						}
					}
				}
			}
		}
	}
	JOINT LeftHip
	{
		OFFSET 11.7333 0.0000 0.0000
		CHANNELS 3 Zrotation Xrotation Yrotation
		JOINT LeftKnee
		{
			OFFSET -0.0000 -40.8688 0.0000
			CHANNELS 3 Zrotation Xrotation Yrotation
			JOINT LeftAnkle
			{
				OFFSET -0.0000 -44.4337 0.0000
				CHANNELS 3 Zrotation Xrotation Yrotation
				End Site
				{
					OFFSET -0.0000 -4.8889 16.6222
				}
			}
		}
	}
	JOINT RightHip
	{
		OFFSET -11.7333 0.0000 0.0000
		CHANNELS 3 Zrotation Xrotation Yrotation
		JOINT RightKnee
		{
			OFFSET -0.0000 -40.8688 0.0000
			CHANNELS 3 Zrotation Xrotation Yrotation
			JOINT RightAnkle
			{
				OFFSET -0.0000 -44.4337 0.0000
				CHANNELS 3 Zrotation Xrotation Yrotation
				End Site
				{
					OFFSET -0.0000 -4.8889 16.6222
				}
			}
		}
	}
}
MOTION
Frames: 12
Frame Time: 0.010000
1.0007 83.6047 69.8408 0.7037 354.0849 188.0533 1.5502 7.0419 352.5838 5.8842 6.7626 352.3316 8.7884 337.9523 4.6386 353.5732 5.3951 3.2415 337.0168 357.9806 9.8695 336.0518 55.2868 319.9840 40.5429 347.2725 325.7461 84.4373 354.4044 10.5882 19.5126 358.1680 349.6331 64.5564 29.8788 351.5321 343.8073 356.0034 27.3166 282.1169 353.2189 29.4613 3.6801 8.8199 352.5579 358.8573 13.9812 353.6004 351.5615 337.7462 20.8957 359.3273 319.5019 5.7576 4.5971 40.6892 359.8550 355.1263 349.7781 337.1278 
1.2037 83.6577 69.3493 0.6970 353.9827 188.0076 1.5982 7.0704 352.5752 5.8465 6.7825 352.3272 8.7758 338.0257 4.7131 353.7649 5.2099 3.3003 337.0369 357.9593 9.9927 335.9263 55.2366 320.0813 40.4287 347.2307 325.7985 84.6837 354.1839 10.5019 19.5164 358.2222 349.9504 64.4991 30.6379 351.8777 343.5702 355.9445 27.2992 281.7072 353.2313 28.7513 3.7678 8.8427 352.6756 358.8559 14.2656 353.4328 352.7331 337.9455 21.4640 359.7188 319.5944 5.8559 4.3210 40.9661 0.2754 354.8085 349.5288 336.9147 
1.3711 83.7354 68.8705 0.6614 353.8355 187.9806 1.6793 7.0213 352.5515 5.7018 6.7851 352.3164 8.7872 338.0870 4.7278 353.8702 5.0783 3.2983 337.0052 357.9357 10.2080 336.8843 55.8112 319.2309 40.7451 347.1827 326.3463 84.3312 353.9962 10.8828 19.5695 358.2511 350.1586 64.3939 31.1339 352.3007 343.2932 355.8690 27.2747 281.5704 353.1218 28.3365 3.7750 8.7475 353.0392 358.9465 14.5971 353.3031 352.2429 338.0789 21.2633 359.9671 319.6752 5.9163 4.1601 41.1686 0.5681 354.4739 349.2853 336.7541 
1.5577 83.8319 68.3720 0.6817 353.7639 187.9751 1.7441 6.9838 352.5458 5.6462 6.8322 352.3150 8.7260 338.1218 4.7202 354.0159 5.0090 3.2930 337.0072 357.9291 10.1911 336.4807 55.7143 319.5927 40.4725 347.3733 326.2734 84.8620 354.1992 11.0816 19.6058 358.2887 350.3181 64.1531 31.4323 352.7985 343.1855 355.8419 27.4297 281.4272 353.0858 28.1976 3.8798 8.7630 353.1133 358.9298 14.8325 353.3551 352.3753 338.2668 21.4772 0.3171 319.8962 6.0483 3.9725 41.2545 0.8247 354.1493 349.0699 336.5732 
1.7305 83.9311 67.9556 0.7068 353.6383 187.9990 1.7861 6.8658 352.5391 5.5976 6.9640 352.3053 8.6912 337.9973 4.7170 354.1328 5.0331 3.2831 337.0608 357.9357 10.1439 335.8649 55.4608 320.0674 40.1949 347.4849 326.0850 85.0434 354.4066 10.9957 19.6263 358.3253 350.3960 63.9093 31.7252 353.3723 343.0821 355.7814 27.5620 281.3442 353.0930 28.1466 3.9795 8.6647 353.1977 358.9034 15.0137 353.4040 352.4784 338.4655 21.6823 0.6097 320.0551 6.1381 3.7854 41.2647 1.0637 353.9050 348.9004 336.3909 
1.8442 83.9815 67.7672 0.7056 353.6038 187.9602 1.8053 6.9171 352.5689 5.5149 6.9662 352.3423 8.6612 337.9953 4.7048 354.2414 4.9173 3.2642 337.0655 357.9251 10.1425 335.8306 55.3929 320.0554 40.1864 347.4303 326.1280 85.0224 354.4397 10.8715 19.6230 358.3555 350.4840 63.8615 31.8141 353.5991 343.0051 355.7796 27.6366 281.3347 353.0495 28.2078 4.0304 8.6643 353.3239 358.9098 15.0232 353.5343 352.1606 338.4793 21.5831 0.8071 320.1613 6.2904 3.7089 41.2596 1.1371 353.8352 348.8020 336.2981 
2.0268 84.2139 67.1755 0.6029 353.2982 187.8482 1.7429 6.6921 352.6388 5.3800 6.8811 352.4170 8.5618 338.1657 4.6648 354.3372 4.8203 3.2490 337.0841 357.9519 10.1221 334.7352 55.1289 321.0557 39.6603 347.6757 326.2545 84.7968 354.5344 10.3163 19.6597 358.3804 350.6674 63.6026 32.2533 354.3797 342.6386 355.6483 27.6829 281.2374 352.7804 28.0040 3.9026 8.3658 353.5840 358.9724 14.9853 353.5398 351.8693 338.9172 21.5602 1.0693 320.3409 6.3987 3.4179 41.1679 1.5900 353.3001 348.5131 336.0377 
2.2030 84.4295 66.6353 0.5750 353.0850 187.8116 1.7449 6.5379 352.6909 5.2787 6.8021 352.4766 8.4378 338.2739 4.6034 354.4042 4.7631 3.2133 337.1162 357.9647 9.9663 333.0814 54.4802 322.5630 38.8578 347.9742 326.1305 84.7386 354.6027 9.4930 19.6766 358.3955 350.8005 63.3481 32.5997 355.1066 342.3399 355.5400 27.8379 280.9875 352.8207 27.6607 3.8829 8.0901 353.7602 359.0092 14.8800 353.7640 352.0717 339.2976 21.4888 1.3392 320.6380 6.6240 3.2875 40.9317 1.7042 352.9293 348.2694 335.8836 
2.3543 84.6235 66.2173 0.5661 352.9079 187.8360 1.6794 6.4015 352.7672 5.2787 6.7594 352.5494 8.3508 338.3061 4.5105 354.3741 4.7061 3.1316 337.1452 358.0082 9.6210 331.0165 53.4518 324.4922 37.7810 348.2231 325.5662 84.7722 354.7648 8.3100 19.6484 358.4066 350.8330 63.1807 32.9209 355.7553 341.9778 355.4189 27.9104 280.8934 352.7929 27.1732 3.8996 7.7948 353.8554 359.0309 14.7213 353.9164 352.2782 339.4160 21.4147 1.5197 320.9393 6.7531 3.1707 40.6264 1.8251 352.7921 348.0934 335.7785 
2.4924 84.8276 65.7820 0.5228 352.8516 187.8274 1.5423 6.3309 352.8890 5.3230 6.8062 352.6575 8.3123 338.2657 4.4399 354.2895 4.6979 3.0687 337.1322 358.0515 9.4183 329.6462 52.7811 325.7240 37.0044 348.3816 325.2797 84.6805 354.7651 7.5892 19.5850 358.4345 350.8973 63.0751 33.2037 356.3839 341.6031 355.3089 27.9844 280.6924 352.7318 26.6942 3.8721 7.6060 353.9358 358.9792 14.5251 354.3500 351.4282 339.4929 20.9171 1.6860 321.4159 6.7894 2.9660 40.2419 2.1219 352.6415 347.9287 335.6063 
2.6325 85.0486 65.3844 0.4838 352.7075 187.8479 1.5255 6.2173 352.9514 5.1980 6.7265 352.7284 8.1941 338.2448 4.3195 354.2600 4.7176 2.9688 337.1576 358.1072 9.2397 328.3354 52.0217 326.9292 36.0862 348.5988 325.0273 84.7287 354.9280 6.5845 19.5630 358.4627 350.9935 63.0369 33.4503 356.8729 341.1948 355.1849 28.1019 280.3995 352.7071 26.1145 3.8361 7.2397 354.0175 359.0063 14.3367 354.3052 352.4847 339.9239 21.3205 1.8053 321.7982 6.8384 2.8808 39.8282 1.9959 352.3187 347.6857 335.5850 
2.7627 85.2705 64.9637 0.4224 352.7396 187.8071 1.5709 6.2767 353.0278 4.9677 6.5759 352.8281 7.9661 338.3641 4.1832 354.3993 4.6457 2.8780 337.1795 358.1029 9.3425 327.8180 52.1573 327.4300 35.9167 348.5899 325.2683 84.4445 354.8767 6.3783 19.6221 358.4735 351.1501 62.8826 33.7844 357.3031 340.8159 355.0642 28.2295 280.0118 352.6057 25.2894 3.7950 7.0162 354.0486 358.9889 14.2027 354.3182 352.2586 340.0014 21.3641 1.9514 322.4060 6.9099 2.7406 39.3195 2.0830 352.2589 347.4884 335.5344 
